<mxfile host="app.diagrams.net" modified="2023-10-18T09:25:14.642Z" agent="Mozilla/5.0 (Macintosh; Intel Mac OS X 10_15_7) AppleWebKit/605.1.15 (KHTML, like Gecko) Version/17.0 Safari/605.1.15" version="22.0.4" etag="ZE1cDRMBYOPlm6YhnCiw" type="github">
  <diagram name="第 1 页" id="PC1k3bOV_Hs2M3tE_q_K">
    <mxGraphModel>
      <root>
        <mxCell id="0" />
        <mxCell id="1" parent="0" />
      </root>
    </mxGraphModel>
  </diagram>
</mxfile>
